<svg xmlns="http://www.w3.org/2000/svg" width="1200" height="700" viewBox="0 0 1200 700">
<defs><linearGradient id="p1"><stop stop-color="#5b21b6"/><stop offset="1" stop-color="#db2777"/></linearGradient><linearGradient id="p2"><stop stop-color="#0f766e"/><stop offset="1" stop-color="#14b8a6"/></linearGradient><linearGradient id="p3"><stop stop-color="#9a3412"/><stop offset="1" stop-color="#f59e0b"/></linearGradient></defs>
<rect width="1200" height="700" rx="28" fill="#090d16"/>
<text x="66" y="72" fill="#f0f6fc" font-family="Arial" font-size="24" font-weight="700">Swipe. Save. Open.</text>
<text x="66" y="98" fill="#8b949e" font-family="monospace" font-size="10">feed · saved · redirect · consent · analytics</text>

<g transform="translate(85 126)">
<rect width="270" height="500" rx="38" fill="#111827" stroke="#30363d"/>
<rect x="16" y="22" width="238" height="456" rx="28" fill="#0d1117"/>
<rect x="28" y="38" width="214" height="220" rx="22" fill="url(#p1)"/>
<circle cx="54" cy="62" r="13" fill="#fff" opacity=".16"/><rect x="155" y="51" width="62" height="24" rx="12" fill="#0d1117" opacity=".55"/><text x="186" y="67" text-anchor="middle" fill="#fff" font-family="monospace" font-size="8">Electronics</text>
<text x="30" y="291" fill="#8b949e" font-family="monospace" font-size="9">38% OFF</text>
<text x="30" y="321" fill="#f0f6fc" font-family="Arial" font-size="18" font-weight="700">Wireless headphones</text>
<text x="30" y="350" fill="#e1306c" font-family="Arial" font-size="20" font-weight="700">€59.90</text>
<text x="30" y="376" fill="#8b949e" font-family="monospace" font-size="9">12 saved</text>
<rect x="30" y="397" width="148" height="40" rx="12" fill="#e1306c"/><text x="104" y="422" text-anchor="middle" fill="#fff" font-family="Arial" font-size="13" font-weight="700">Get it</text>
<text x="202" y="422" fill="#c9d1d9" font-family="Arial" font-size="18">♡</text>
<line x1="30" y1="450" x2="224" y2="450" stroke="#30363d"/>
<text x="30" y="470" fill="#8b949e" font-family="monospace" font-size="8">redirect: allow-listed</text>
</g><g transform="translate(465 126)">
<rect width="270" height="500" rx="38" fill="#111827" stroke="#30363d"/>
<rect x="16" y="22" width="238" height="456" rx="28" fill="#0d1117"/>
<rect x="28" y="38" width="214" height="220" rx="22" fill="url(#p2)"/>
<circle cx="54" cy="62" r="13" fill="#fff" opacity=".16"/><rect x="155" y="51" width="62" height="24" rx="12" fill="#0d1117" opacity=".55"/><text x="186" y="67" text-anchor="middle" fill="#fff" font-family="monospace" font-size="8">Home</text>
<text x="30" y="291" fill="#8b949e" font-family="monospace" font-size="9">22% OFF</text>
<text x="30" y="321" fill="#f0f6fc" font-family="Arial" font-size="18" font-weight="700">Coffee gear</text>
<text x="30" y="350" fill="#14b8a6" font-family="Arial" font-size="20" font-weight="700">€34.50</text>
<text x="30" y="376" fill="#8b949e" font-family="monospace" font-size="9">7 saved</text>
<rect x="30" y="397" width="148" height="40" rx="12" fill="#0f766e"/><text x="104" y="422" text-anchor="middle" fill="#fff" font-family="Arial" font-size="13" font-weight="700">Saved</text>
<text x="202" y="422" fill="#f0f6fc" font-family="Arial" font-size="18">♥</text>
<line x1="30" y1="450" x2="224" y2="450" stroke="#30363d"/>
<text x="30" y="470" fill="#8b949e" font-family="monospace" font-size="8">saved with RLS</text>
</g><g transform="translate(845 126)">
<rect width="270" height="500" rx="38" fill="#111827" stroke="#30363d"/>
<rect x="16" y="22" width="238" height="456" rx="28" fill="#0d1117"/>
<rect x="28" y="38" width="214" height="220" rx="22" fill="url(#p3)"/>
<circle cx="54" cy="62" r="13" fill="#fff" opacity=".16"/><rect x="155" y="51" width="62" height="24" rx="12" fill="#0d1117" opacity=".55"/><text x="186" y="67" text-anchor="middle" fill="#fff" font-family="monospace" font-size="8">Fashion</text>
<text x="30" y="291" fill="#8b949e" font-family="monospace" font-size="9">41% OFF</text>
<text x="30" y="321" fill="#f0f6fc" font-family="Arial" font-size="18" font-weight="700">Sneakers</text>
<text x="30" y="350" fill="#f59e0b" font-family="Arial" font-size="20" font-weight="700">€72.00</text>
<text x="30" y="376" fill="#8b949e" font-family="monospace" font-size="9">18 saved</text>
<rect x="30" y="397" width="148" height="40" rx="12" fill="#9a3412"/><text x="104" y="422" text-anchor="middle" fill="#fff" font-family="Arial" font-size="13" font-weight="700">Get it</text>
<text x="202" y="422" fill="#c9d1d9" font-family="Arial" font-size="18">♡</text>
<line x1="30" y1="450" x2="224" y2="450" stroke="#30363d"/>
<text x="30" y="470" fill="#8b949e" font-family="monospace" font-size="8">analytics: consented</text>
</g>

<g transform="translate(66 642)">
<text x="0" y="0" fill="#8b949e" font-family="monospace" font-size="9">settings: analytics ✓ · ads consent ✓ · anonymous session · redirect audit trail</text>
</g>
</svg>